<?xml version="1.0" encoding="utf-8"?>
<!-- Generator: Adobe Illustrator 22.1.0, SVG Export Plug-In . SVG Version: 6.00 Build 0)  -->
<svg version="1.1" id="Layer_1" xmlns="http://www.w3.org/2000/svg" xmlns:xlink="http://www.w3.org/1999/xlink" x="0px" y="0px"
	 width="436.2px" height="100.4px" viewBox="0 0 436.2 100.4" style="enable-background:new 0 0 436.2 100.4;" xml:space="preserve"
	>
<style type="text/css">
	.st0{fill:#0A69B3;}
	.st1{fill:#19B4EA;}
	.st2{fill:#208CCC;}
	.st3{fill:#20B3E8;}
	.st4{fill:#1169B2;}
	.st5{fill:#218CCC;}
</style>
<g>
	<g>
		<path class="st0" d="M124.3,78.9l-8.7-32.1l-8.8,32.1c-0.7,2.4-1.2,4.2-1.6,5.2c-0.4,1.1-1.1,2-2.1,2.8c-1,0.8-2.3,1.3-4,1.3
			c-1.3,0-2.4-0.3-3.3-0.7c-0.9-0.5-1.6-1.2-2.1-2.1c-0.5-0.9-1-2-1.3-3.3c-0.3-1.3-0.6-2.4-0.9-3.5l-8.9-36
			c-0.5-2.1-0.8-3.7-0.8-4.8c0-1.4,0.5-2.6,1.5-3.5c1-0.9,2.2-1.4,3.6-1.4c2,0,3.3,0.6,4,1.9c0.7,1.3,1.3,3.1,1.8,5.5l7,31.3
			l7.8-29.2c0.6-2.2,1.1-3.9,1.6-5.1c0.5-1.2,1.2-2.2,2.3-3c1-0.9,2.5-1.3,4.3-1.3c1.8,0,3.2,0.4,4.3,1.3c1,0.9,1.7,1.9,2.1,2.9
			c0.4,1,0.9,2.8,1.6,5.2l7.9,29.2l7-31.3c0.3-1.6,0.7-2.9,1-3.8s0.8-1.8,1.6-2.5c0.7-0.7,1.8-1.1,3.2-1.1s2.6,0.5,3.6,1.4
			c1,0.9,1.5,2.1,1.5,3.5c0,1-0.3,2.6-0.8,4.8l-8.9,36c-0.6,2.4-1.1,4.2-1.5,5.3c-0.4,1.1-1.1,2.1-2,3c-1,0.9-2.3,1.3-4.1,1.3
			c-1.7,0-3-0.4-4-1.2c-1-0.8-1.7-1.8-2.1-2.8C125.6,83.2,125,81.5,124.3,78.9z"/>
		<path class="st0" d="M181.8,70.5h-19.5c0,2.3,0.5,4.3,1.4,6c0.9,1.7,2.1,3,3.5,3.9c1.5,0.9,3.1,1.3,4.9,1.3c1.2,0,2.3-0.1,3.3-0.4
			c1-0.3,1.9-0.7,2.9-1.3c0.9-0.6,1.8-1.2,2.6-1.9c0.8-0.7,1.8-1.6,3-2.8c0.5-0.4,1.2-0.7,2.2-0.7c1,0,1.8,0.3,2.5,0.8
			c0.6,0.6,0.9,1.4,0.9,2.4c0,0.9-0.4,2-1.1,3.2c-0.7,1.2-1.8,2.4-3.2,3.5c-1.4,1.1-3.2,2-5.4,2.8c-2.2,0.7-4.6,1.1-7.4,1.1
			c-6.4,0-11.4-1.8-14.9-5.5c-3.6-3.7-5.3-8.6-5.3-14.9c0-2.9,0.4-5.7,1.3-8.2c0.9-2.5,2.2-4.7,3.8-6.5s3.7-3.2,6.2-4.1
			c2.5-1,5.2-1.4,8.2-1.4c3.9,0,7.2,0.8,10,2.5c2.8,1.6,4.9,3.8,6.3,6.4c1.4,2.6,2.1,5.3,2.1,8c0,2.5-0.7,4.1-2.2,4.9
			S184.4,70.5,181.8,70.5z M162.3,64.8h18.1c-0.2-3.4-1.2-6-2.8-7.6c-1.6-1.7-3.7-2.5-6.3-2.5c-2.5,0-4.5,0.9-6.1,2.6
			C163.6,58.9,162.7,61.5,162.3,64.8z"/>
		<path class="st1" d="M230.3,42.8h-11.8v38.9c0,2.2-0.5,3.9-1.5,5c-1,1.1-2.3,1.6-3.9,1.6c-1.6,0-2.9-0.5-3.9-1.6
			c-1-1.1-1.5-2.8-1.5-5V42.8h-11.8c-1.8,0-3.2-0.4-4.1-1.2c-0.9-0.8-1.4-1.9-1.4-3.2c0-1.4,0.5-2.5,1.4-3.3
			c0.9-0.8,2.3-1.2,4.1-1.2h34.5c1.9,0,3.3,0.4,4.2,1.2c0.9,0.8,1.4,1.9,1.4,3.2s-0.5,2.4-1.4,3.2C233.6,42.4,232.2,42.8,230.3,42.8
			z"/>
		<path class="st1" d="M248.7,73.9v8.3c0,2-0.5,3.5-1.4,4.5c-0.9,1-2.2,1.5-3.6,1.5c-1.4,0-2.6-0.5-3.5-1.5c-0.9-1-1.4-2.5-1.4-4.5
			V54.5c0-4.5,1.6-6.7,4.9-6.7c1.7,0,2.8,0.5,3.6,1.6c0.7,1,1.1,2.6,1.2,4.6c1.2-2,2.4-3.6,3.7-4.6s2.9-1.6,5-1.6
			c2.1,0,4.1,0.5,6.1,1.6s3,2.4,3,4.2c0,1.2-0.4,2.2-1.3,3c-0.8,0.8-1.7,1.2-2.7,1.2c-0.4,0-1.2-0.2-2.6-0.7
			c-1.4-0.5-2.6-0.7-3.7-0.7c-1.5,0-2.7,0.4-3.6,1.1c-0.9,0.8-1.6,1.9-2.2,3.4c-0.5,1.5-0.9,3.3-1.1,5.4
			C248.8,68.4,248.7,70.9,248.7,73.9z"/>
		<path class="st1" d="M294.8,82.7c-2.4,1.9-4.7,3.3-7,4.2c-2.3,0.9-4.8,1.4-7.6,1.4c-2.6,0-4.8-0.5-6.7-1.5c-1.9-1-3.4-2.4-4.5-4.1
			c-1-1.7-1.6-3.6-1.6-5.6c0-2.7,0.9-5.1,2.6-7c1.7-1.9,4.1-3.2,7.1-3.9c0.6-0.1,2.2-0.5,4.7-1c2.5-0.5,4.7-1,6.4-1.4
			c1.8-0.4,3.7-0.9,5.8-1.6c-0.1-2.6-0.7-4.6-1.6-5.8c-0.9-1.2-2.9-1.8-5.8-1.8c-2.5,0-4.4,0.4-5.7,1.1c-1.3,0.7-2.4,1.8-3.3,3.2
			c-0.9,1.4-1.6,2.3-1.9,2.8c-0.4,0.5-1.2,0.7-2.4,0.7c-1.1,0-2.1-0.4-2.9-1.1c-0.8-0.7-1.2-1.6-1.2-2.8c0-1.8,0.6-3.5,1.9-5.1
			c1.2-1.7,3.2-3,5.8-4.1s5.9-1.6,9.8-1.6c4.4,0,7.8,0.5,10.3,1.6c2.5,1,4.3,2.7,5.3,4.9c1,2.2,1.6,5.2,1.6,8.9c0,2.3,0,4.3,0,6
			c0,1.6,0,3.4-0.1,5.4c0,1.9,0.3,3.8,0.9,5.9c0.6,2,0.9,3.3,0.9,3.9c0,1-0.5,2-1.4,2.8c-1,0.8-2.1,1.3-3.3,1.3c-1,0-2-0.5-3-1.4
			C297,85.9,296,84.5,294.8,82.7z M294.2,68.2c-1.5,0.5-3.6,1.1-6.4,1.7c-2.8,0.6-4.7,1-5.8,1.3c-1.1,0.3-2.1,0.8-3.1,1.6
			c-1,0.8-1.5,2-1.5,3.4c0,1.5,0.6,2.8,1.7,3.9c1.1,1.1,2.6,1.6,4.5,1.6c2,0,3.8-0.4,5.5-1.3c1.7-0.9,2.9-2,3.7-3.3
			c0.9-1.5,1.4-4,1.4-7.4V68.2z"/>
		<path class="st1" d="M341.4,82.6v-1c-1.3,1.5-2.7,2.8-4,3.7c-1.3,1-2.7,1.7-4.2,2.2c-1.5,0.5-3.2,0.7-5,0.7
			c-2.4,0-4.6-0.5-6.6-1.5c-2-1-3.8-2.5-5.3-4.3s-2.6-4.1-3.4-6.6c-0.8-2.5-1.1-5.3-1.1-8.2c0-6.2,1.5-11.1,4.6-14.6s7-5.2,12-5.2
			c2.9,0,5.3,0.5,7.3,1.5c2,1,3.9,2.5,5.8,4.5V39.2c0-2,0.4-3.6,1.2-4.6c0.8-1,2-1.6,3.5-1.6c1.5,0,2.7,0.5,3.5,1.4
			c0.8,1,1.2,2.4,1.2,4.3v44c0,1.9-0.4,3.3-1.3,4.3c-0.9,0.9-2,1.4-3.4,1.4c-1.4,0-2.5-0.5-3.4-1.5
			C341.8,85.8,341.4,84.4,341.4,82.6z M321.8,68c0,2.7,0.4,5,1.3,6.9c0.8,1.9,2,3.3,3.4,4.3c1.5,1,3.1,1.4,4.8,1.4
			c1.8,0,3.4-0.5,4.8-1.4c1.4-0.9,2.6-2.3,3.5-4.2c0.9-1.9,1.3-4.2,1.3-7.1c0-2.7-0.4-4.9-1.3-6.8c-0.9-1.9-2-3.4-3.5-4.4
			c-1.5-1-3.1-1.5-4.8-1.5c-1.8,0-3.5,0.5-4.9,1.6c-1.4,1-2.6,2.5-3.3,4.5C322.2,63.2,321.8,65.4,321.8,68z"/>
		<path class="st1" d="M388.6,70.5h-19.5c0,2.3,0.5,4.3,1.4,6c0.9,1.7,2.1,3,3.5,3.9c1.5,0.9,3.1,1.3,4.9,1.3c1.2,0,2.3-0.1,3.3-0.4
			c1-0.3,1.9-0.7,2.9-1.3c0.9-0.6,1.8-1.2,2.6-1.9c0.8-0.7,1.8-1.6,3-2.8c0.5-0.4,1.2-0.7,2.2-0.7c1,0,1.8,0.3,2.5,0.8
			s0.9,1.4,0.9,2.4c0,0.9-0.4,2-1.1,3.2c-0.7,1.2-1.8,2.4-3.2,3.5c-1.4,1.1-3.2,2-5.4,2.8c-2.2,0.7-4.6,1.1-7.4,1.1
			c-6.4,0-11.4-1.8-14.9-5.5c-3.6-3.7-5.3-8.6-5.3-14.9c0-2.9,0.4-5.7,1.3-8.2c0.9-2.5,2.2-4.7,3.8-6.5s3.7-3.2,6.2-4.1
			c2.5-1,5.2-1.4,8.2-1.4c3.9,0,7.2,0.8,10,2.5c2.8,1.6,4.9,3.8,6.3,6.4c1.4,2.6,2.1,5.3,2.1,8c0,2.5-0.7,4.1-2.2,4.9
			S391.2,70.5,388.6,70.5z M369.1,64.8h18.1c-0.2-3.4-1.2-6-2.8-7.6c-1.6-1.7-3.7-2.5-6.3-2.5c-2.5,0-4.5,0.9-6.1,2.6
			C370.4,58.9,369.5,61.5,369.1,64.8z"/>
	</g>
	<g>
		<path class="st2" d="M66.2,38.2c2.7,3.8,5.1,7.8,7.2,12c0.9-2,1.7-4,2.4-6.1c2.3-6.3,3.9-12.5,4.9-18c-5.6-0.8-11.9-1.3-18.7-1.2
			c-2.2,0-4.5,0.2-6.6,0.3c1.5,1.5,3,3.1,4.4,4.8c0,0,0,0,0,0c0.6-0.3,1.3-0.4,2-0.4c3,0,5.4,2.4,5.4,5.4
			C67.3,36.2,66.9,37.3,66.2,38.2C66.2,38.2,66.2,38.2,66.2,38.2z"/>
		<path class="st3" d="M7.1,24.4C3.6,30.3,1.2,37,0.4,44.1c3-2.4,6.2-4.7,9.4-6.7C8.7,33.2,7.8,28.9,7.1,24.4z"/>
		<path class="st3" d="M15.5,34.1C15.5,34.1,15.5,34.1,15.5,34.1c-0.1-0.3-0.1-0.7-0.1-1c0-3,2.4-5.4,5.4-5.4c1.6,0,3.1,0.7,4.1,1.9
			c0,0,0,0,0,0c7.7-3.2,15.7-5.4,24.1-6.6c-7.1-6.3-15.2-11.6-24.3-16c-5.9,3.5-11,8.1-15,13.6c0.5,4.7,1.4,9.9,2.8,15.2
			C13.4,35.2,14.5,34.6,15.5,34.1z"/>
		<path class="st2" d="M85.4,14.4c-0.2,2.8-0.6,5.9-1.2,9.2c3.6,0.6,6.9,1.3,9.8,2C91.7,21.5,88.8,17.7,85.4,14.4z"/>
		<path class="st3" d="M27.8,5.3c9.4,4.8,17.7,10.5,24.9,17.3c3.1-0.3,6.3-0.5,9.5-0.6c6.9-0.1,13.4,0.4,19.1,1.2
			c0.7-4.3,1.1-8.1,1.3-11.3C73.9,4.5,62.6,0,50.2,0C42.1,0,34.5,1.9,27.8,5.3z"/>
		<path class="st2" d="M30.2,66c0,1.2-0.4,2.3-1,3.2c5.3,6.3,11.6,11.6,18.9,16c0,0,0,0,0,0C58.1,76.5,66,66,71.8,53.7
			c-2.3-4.9-5-9.4-7.9-13.7c0,0,0,0,0,0c-0.6,0.3-1.3,0.4-2,0.4c-3,0-5.4-2.4-5.4-5.4c0-1.2,0.4-2.3,1.1-3.2c0,0,0,0,0,0
			c-1.9-2.1-3.8-4.2-5.9-6.2c-9,1.1-17.6,3.3-25.7,6.6c0,0,0,0,0,0c0,0.3,0.1,0.5,0.1,0.8c0,3-2.4,5.4-5.4,5.4c-1.6,0-3-0.7-4-1.8
			c0,0,0,0,0,0c-1.2,0.6-2.4,1.3-3.5,2c2.1,7.4,5.3,15.1,9.9,22.3c0.5-0.2,1.1-0.3,1.7-0.3C27.8,60.7,30.2,63,30.2,66z"/>
		<path class="st4" d="M73.4,57.2c-5.1,10-11.6,18.9-19.6,26.6c-1,1-2.1,2-3.1,2.9c0.9,0.5,1.8,0.9,2.7,1.4c1-1.4,2.6-2.4,4.4-2.4
			c3,0,5.4,2.4,5.4,5.4c0,0.4,0,0.8-0.1,1.2c0,0,0,0,0,0c3,1.1,6.2,2.1,9.4,3c3.4-1.7,6.6-3.8,9.5-6.1c-0.9-7.3-2.7-16.3-6.1-25.8
			C75.1,61.2,74.3,59.2,73.4,57.2z"/>
		<path class="st4" d="M61.5,94.9c-1,0.9-2.3,1.5-3.7,1.5c-3,0-5.4-2.4-5.4-5.4c0,0,0-0.1,0-0.1c0,0,0,0,0,0
			c-1.4-0.7-2.8-1.4-4.2-2.2c-4.1,3.4-8.5,6.5-13.2,9.4c4.8,1.5,9.9,2.3,15.1,2.3c6.3,0,12.4-1.2,17.9-3.3
			C65.9,96.5,63.7,95.7,61.5,94.9C61.5,94.9,61.5,94.9,61.5,94.9z"/>
		<path class="st2" d="M26.8,71c-0.6,0.2-1.3,0.4-1.9,0.4c-3,0-5.4-2.4-5.4-5.4c0-1.3,0.5-2.4,1.2-3.3C16.4,56,13,48.5,10.6,40.3
			C7,42.7,3.4,45.3,0,48.1c0,0.7,0,1.4,0,2.1c0,21.1,13,39.2,31.5,46.6c5.1-2.9,9.8-6.1,14.1-9.6C38.4,82.7,32.1,77.3,26.8,71z"/>
	</g>
	<g>
		<path class="st5" d="M411.6,21.4h-10.5v6.7h8.7c0.8,0,1.4,0.2,1.8,0.5c0.4,0.4,0.6,0.8,0.6,1.5s-0.2,1.1-0.6,1.4s-1,0.5-1.8,0.5
			h-8.7v8.6c0,1.1-0.2,1.9-0.7,2.4c-0.5,0.5-1.1,0.8-1.9,0.8c-0.8,0-1.4-0.3-1.9-0.8s-0.7-1.3-0.7-2.4V20.6c0-0.8,0.1-1.4,0.3-1.9
			c0.2-0.5,0.6-0.8,1.1-1.1c0.5-0.2,1.1-0.3,1.8-0.3h12.5c0.8,0,1.5,0.2,1.9,0.6c0.4,0.4,0.6,0.9,0.6,1.5c0,0.6-0.2,1.1-0.6,1.5
			C413,21.2,412.4,21.4,411.6,21.4z"/>
		<path class="st5" d="M433.7,21.4h-10.5v6.7h8.7c0.8,0,1.4,0.2,1.8,0.5c0.4,0.4,0.6,0.8,0.6,1.5s-0.2,1.1-0.6,1.4
			c-0.4,0.4-1,0.5-1.8,0.5h-8.7v8.6c0,1.1-0.2,1.9-0.7,2.4c-0.5,0.5-1.1,0.8-1.9,0.8c-0.8,0-1.4-0.3-1.9-0.8
			c-0.5-0.5-0.7-1.3-0.7-2.4V20.6c0-0.8,0.1-1.4,0.3-1.9c0.2-0.5,0.6-0.8,1.1-1.1c0.5-0.2,1.1-0.3,1.8-0.3h12.5
			c0.8,0,1.5,0.2,1.9,0.6c0.4,0.4,0.6,0.9,0.6,1.5c0,0.6-0.2,1.1-0.6,1.5C435.1,21.2,434.5,21.4,433.7,21.4z"/>
	</g>
</g>
</svg>
